<?xml version="1.0" encoding="UTF-8"?>
<svg version="1.1" xmlns="http://www.w3.org/2000/svg" width="512" height="512">
<path d="M0 0 C7.17641867 5.872837 12.09369585 13.39945036 13.046875 22.75390625 C13.17292776 33.89697017 11.15437777 42.0711129 3.359375 50.30078125 C-2.18793147 54.81717236 -8.81509608 57.51713254 -15.2890625 60.45703125 C-38.51587766 71.19761488 -58.3899682 86.55156836 -68.25390625 110.83203125 C-71.03646274 118.58442745 -72.19825623 126.6305833 -72.84375 134.8125 C-72.92866699 135.8749292 -73.01358398 136.9373584 -73.10107422 138.03198242 C-73.16311035 138.83224854 -73.22514648 139.63251465 -73.2890625 140.45703125 C-72.67891076 140.45426587 -72.06875902 140.45150049 -71.44011784 140.44865131 C-56.56584454 140.38228069 -41.69158562 140.33269689 -26.81720066 140.30159473 C-19.62392914 140.2861526 -12.43075672 140.26511415 -5.23754883 140.23071289 C1.0350303 140.20072891 7.30753762 140.18143697 13.58018643 140.17476577 C16.89884516 140.17086864 20.2172517 140.16017109 23.53585625 140.13984108 C27.24855507 140.1180052 30.96083109 140.11506699 34.67358398 140.11645508 C36.30818069 140.10027634 36.30818069 140.10027634 37.97579956 140.08377075 C48.06907555 140.12449651 56.33052553 142.24153612 63.75 149.43359375 C72.73085546 158.93697171 73.15582955 167.56493551 73.11499023 180.09350586 C73.12069918 181.67612692 73.12766547 183.25874386 73.13578796 184.84135437 C73.15367636 189.12239991 73.15255919 193.40323999 73.14684558 197.68431163 C73.14374754 201.26523762 73.14985299 204.84612451 73.15588433 208.42704493 C73.16991368 216.87807304 73.16838144 225.32900003 73.15698242 233.7800293 C73.14550182 242.48359987 73.15957946 251.18686227 73.1863789 259.89039224 C73.20856584 267.37770308 73.21516656 274.86491738 73.20930248 282.35225874 C73.20593898 286.81766205 73.2083076 291.28286783 73.22555351 295.74824333 C73.24106852 299.94844492 73.23701698 304.14819141 73.21824837 308.34837532 C73.21457509 309.88459311 73.21763401 311.42084496 73.22813416 312.95703125 C73.28028683 321.2217026 73.01674631 328.18730981 68.7109375 335.45703125 C68.1540625 336.50890625 67.5971875 337.56078125 67.0234375 338.64453125 C61.78964684 345.00995233 54.67207834 348.65817141 46.7109375 350.45703125 C41.58246588 350.889557 36.46976689 350.86807627 31.328125 350.84521484 C29.78476593 350.84928611 28.24140978 350.85463109 26.69805908 350.86114502 C22.52862577 350.87475856 18.35941651 350.86954477 14.18997955 350.86000776 C9.81398441 350.85238012 5.43800767 350.85946537 1.06201172 350.86416626 C-6.28486554 350.8696148 -13.63165215 350.86245592 -20.97851562 350.84814453 C-29.45655394 350.83181974 -37.93437576 350.83710889 -46.41240883 350.85362375 C-53.70865537 350.86726436 -61.00483697 350.86914571 -68.30109215 350.86130774 C-72.65130534 350.85664536 -77.00141698 350.85596671 -81.35162354 350.86591721 C-85.44262001 350.87462218 -89.53333903 350.86850095 -93.62430573 350.85123444 C-95.12020661 350.84728837 -96.6161311 350.84837121 -98.1120224 350.85502243 C-109.4374992 350.90071306 -118.27618215 349.94694434 -127.2109375 342.54296875 C-134.34025078 335.38685354 -137.47907178 326.48565569 -137.55654931 316.48772258 C-137.55208787 315.77692351 -137.54762642 315.06612444 -137.54302979 314.33378601 C-137.54614977 313.55631431 -137.54926975 312.77884261 -137.55248427 311.97781116 C-137.5604097 309.3935757 -137.5541618 306.80957866 -137.54785156 304.2253418 C-137.55056409 302.36338667 -137.5541265 300.50143262 -137.55847168 298.63948059 C-137.5675737 293.59335812 -137.56405858 288.54731763 -137.55771351 283.50119376 C-137.55263392 278.20097372 -137.55735117 272.90076049 -137.56048584 267.60054016 C-137.56412328 258.68900298 -137.55933586 249.77749894 -137.54980469 240.8659668 C-137.53895732 230.60626221 -137.54241948 220.34663735 -137.5534575 210.08693475 C-137.56258077 201.24917542 -137.56379007 192.41143989 -137.55858016 183.57367736 C-137.55548327 178.30877081 -137.55498687 173.04390149 -137.56165314 167.77899742 C-137.56749831 162.81556352 -137.56330083 157.85223048 -137.55186462 152.8888073 C-137.5492543 151.08265601 -137.54991963 149.276496 -137.55438995 147.47034836 C-137.58885021 132.1119276 -137.12282495 116.38455184 -133.1640625 101.45703125 C-132.95160889 100.64073242 -132.73915527 99.82443359 -132.52026367 98.98339844 C-121.95500711 60.398533 -94.26227949 30.30641369 -60.12109375 10.5859375 C-18.81628042 -12.68332895 -18.81628042 -12.68332895 0 0 Z " fill="#000000" transform="translate(149.2890625,83.54296875)"/>
<path d="M0 0 C7.03922635 4.69281757 11.30498107 11.55773486 13.25 19.75 C14.71007017 29.36840037 12.9292422 37.96148432 7.2734375 45.9140625 C0.89208825 53.69406364 -7.43202935 57.4611523 -16.4375 61.5625 C-24.567669 65.36593524 -32.03473639 69.27666887 -39.1875 74.75 C-39.71778809 75.15299316 -40.24807617 75.55598633 -40.79443359 75.97119141 C-56.95440888 88.41526158 -68.69712281 105.29263049 -71.46992493 125.84318542 C-71.7450462 128.10655855 -72.00665852 130.37099987 -72.26171875 132.63671875 C-72.35175171 133.4196228 -72.44178467 134.20252686 -72.5345459 135.00915527 C-72.75428126 136.922532 -72.97118211 138.83623389 -73.1875 140.75 C-72.57219453 140.74723462 -71.95688906 140.74446924 -71.32293797 140.74162006 C-56.32347551 140.67525131 -41.32405837 140.62566659 -26.32448673 140.59456348 C-19.07068152 140.57912092 -11.81697456 140.55808162 -4.56323242 140.52368164 C1.76208441 140.493699 8.08733005 140.47440604 14.41271597 140.46773452 C17.7593514 140.46383713 21.10562259 140.45313883 24.45222282 140.43280983 C28.19605365 140.41097601 31.93946517 140.40803566 35.68334961 140.40942383 C36.78243149 140.398638 37.88151337 140.38785217 39.01390076 140.3767395 C49.80663677 140.41993196 58.08128783 142.98972312 65.8125 150.75 C73.69281973 161.08871008 74.11129876 171.05357866 74.0871582 183.63623047 C74.09151107 185.13840995 74.09669613 186.64058722 74.10264587 188.14276123 C74.11598566 192.20483808 74.11662014 196.2668216 74.11408257 200.32891607 C74.1130094 203.72831149 74.11790511 207.12768829 74.122688 210.5270797 C74.13376593 218.55143331 74.13423032 226.57574011 74.12817383 234.60009766 C74.12213556 242.85939345 74.13444523 251.11851883 74.1557439 259.37778556 C74.17339648 266.48633558 74.17935548 273.59483153 74.17610615 280.70340264 C74.1742989 284.94133208 74.17687349 289.17913995 74.19082069 293.41704941 C74.20345404 297.40460498 74.2014033 301.39189613 74.18840981 305.37944794 C74.18605637 306.83623217 74.18873413 308.29303533 74.19703293 309.74979782 C74.26068231 321.79896489 73.05588299 332.4373916 64.8125 341.75 C57.55107175 348.02885875 50.69895309 350.98923843 41.00175476 351.01742554 C40.35354462 351.02195665 39.70533448 351.02648776 39.03748161 351.03115618 C36.88518355 351.04372421 34.73314102 351.04218481 32.58081055 351.04052734 C31.0295174 351.04651736 29.47822722 351.05332399 27.92694092 351.06088257 C23.72638869 351.07850166 19.52591802 351.08323622 15.3253324 351.08451414 C12.69714819 351.08593862 10.06898453 351.09021384 7.44080544 351.09550858 C-1.73893926 351.11399534 -10.91862598 351.12218089 -20.09838867 351.12060547 C-28.63774509 351.11940445 -37.1768486 351.14050247 -45.71614105 351.1720928 C-53.06246189 351.19829553 -60.40870034 351.20897109 -67.75506753 351.20769465 C-72.13613709 351.20718619 -76.51698177 351.21280495 -80.89800453 351.23405075 C-85.0210261 351.25350072 -89.14360978 351.25351185 -93.26664734 351.23901749 C-94.77342562 351.23693663 -96.28023179 351.24158688 -97.78696251 351.2537384 C-109.05829772 351.33869905 -119.73450182 349.93432098 -128.1875 341.75 C-134.09996666 334.376485 -136.49460911 327.80868008 -136.44819641 318.3223114 C-136.45202196 317.48796768 -136.45584751 316.65362397 -136.45978898 315.79399711 C-136.470086 313.00542243 -136.46613295 310.21705493 -136.4621582 307.4284668 C-136.46650681 305.42563182 -136.47169046 303.4227985 -136.47764587 301.41996765 C-136.49103916 295.98131968 -136.49161357 290.54274121 -136.48908257 285.10407996 C-136.4880119 280.55473963 -136.49289933 276.0054133 -136.497688 271.45607597 C-136.50878687 260.7102086 -136.50922012 249.96437618 -136.50317383 239.21850586 C-136.49714923 228.16466454 -136.50940562 217.11095099 -136.5307439 206.05713147 C-136.5484218 196.5468365 -136.55435106 187.03658194 -136.55110615 177.52627116 C-136.54930111 171.85560531 -136.55185011 166.18503036 -136.56582069 160.5143795 C-136.57849334 155.17010903 -136.57636659 149.82603547 -136.56340981 144.48176765 C-136.5610639 142.53287054 -136.56370633 140.58395917 -136.57203293 138.63507843 C-136.72281622 100.56085097 -123.86923253 67.07466585 -97.1875 39.75 C-96.4965625 38.9971875 -95.805625 38.244375 -95.09375 37.46875 C-74.71661412 15.83763653 -29.6970257 -16.96972897 0 0 Z " fill="#000000" transform="translate(426.1875,83.25)"/>
</svg>
